<svg width="22" height="22" viewBox="0 0 22 22" fill="none" xmlns="http://www.w3.org/2000/svg">
<g clip-path="url(#clip0_3083_10178)">
<rect x="0.603027" y="0.5" width="21" height="21" rx="5.25" fill="#65ADF1"/>
<path d="M16.9626 10.6155C16.7052 10.3692 16.5715 10.0602 16.5608 9.68839V7.06148C16.5526 6.6897 16.42 6.38014 16.1628 6.13281C15.9057 5.88522 15.5836 5.75788 15.1971 5.75H13.8338V12.3116L8.37228 5.75H7.00862C6.62212 5.75788 6.30031 5.88522 6.04319 6.13281C5.7858 6.38014 5.65341 6.6897 5.64523 7.06148V9.68839C5.63458 10.0602 5.50084 10.3692 5.24344 10.6155C4.98632 10.8615 4.66451 10.9896 4.27802 10.9999C4.66451 11.0104 4.98632 11.1385 5.24344 11.3845C5.50084 11.6308 5.63458 11.9398 5.64523 12.3116V14.9385C5.65341 15.31 5.7858 15.6199 6.04319 15.8672C6.30031 16.1145 6.62212 16.2421 7.00862 16.25H8.37228V9.68839L13.8338 16.25H15.1971C15.5836 16.2421 15.9057 16.1145 16.1628 15.8672C16.42 15.6199 16.5526 15.31 16.5608 14.9385V12.3116C16.5715 11.9398 16.7052 11.6308 16.9626 11.3845C17.2197 11.1385 17.5415 11.0104 17.928 10.9999C17.5415 10.9896 17.2197 10.8615 16.9626 10.6155Z" fill="white"/>
</g>
<defs>
<clipPath id="clip0_3083_10178">
<rect width="21" height="21" fill="white" transform="translate(0.603027 0.5)"/>
</clipPath>
</defs>
</svg>
