<svg width="14" height="22" viewBox="0 0 14 22" fill="none" xmlns="http://www.w3.org/2000/svg">
<g clip-path="url(#clip0_3623_941)">
<path d="M7 11C7 10.0717 7.36875 9.1815 8.02513 8.52513C8.6815 7.86875 9.57174 7.5 10.5 7.5C11.4283 7.5 12.3185 7.86875 12.9749 8.52513C13.6313 9.1815 14 10.0717 14 11C14 11.9283 13.6313 12.8185 12.9749 13.4749C12.3185 14.1313 11.4283 14.5 10.5 14.5C9.57174 14.5 8.6815 14.1313 8.02513 13.4749C7.36875 12.8185 7 11.9283 7 11Z" fill="#1ABCFE"/>
<path d="M0 18C0 17.0717 0.368749 16.1815 1.02513 15.5251C1.6815 14.8687 2.57174 14.5 3.5 14.5H7V18C7 18.9283 6.63125 19.8185 5.97487 20.4749C5.3185 21.1313 4.42826 21.5 3.5 21.5C2.57174 21.5 1.6815 21.1313 1.02513 20.4749C0.368749 19.8185 0 18.9283 0 18H0Z" fill="#0ACF83"/>
<path d="M7 0.5V7.5H10.5C11.4283 7.5 12.3185 7.13125 12.9749 6.47487C13.6313 5.8185 14 4.92826 14 4C14 3.07174 13.6313 2.1815 12.9749 1.52513C12.3185 0.868749 11.4283 0.5 10.5 0.5L7 0.5Z" fill="#FF7262"/>
<path d="M0 4C0 4.92826 0.368749 5.8185 1.02513 6.47487C1.6815 7.13125 2.57174 7.5 3.5 7.5H7V0.5H3.5C2.57174 0.5 1.6815 0.868749 1.02513 1.52513C0.368749 2.1815 0 3.07174 0 4H0Z" fill="#F24E1E"/>
<path d="M0 11C0 11.9283 0.368749 12.8185 1.02513 13.4749C1.6815 14.1313 2.57174 14.5 3.5 14.5H7V7.5H3.5C2.57174 7.5 1.6815 7.86875 1.02513 8.52513C0.368749 9.1815 0 10.0717 0 11H0Z" fill="#A259FF"/>
</g>
<defs>
<clipPath id="clip0_3623_941">
<rect width="14" height="21" fill="white" transform="translate(0 0.5)"/>
</clipPath>
</defs>
</svg>
