<?xml version="1.0" standalone="no"?>
<!DOCTYPE svg PUBLIC "-//W3C//DTD SVG 20010904//EN"
 "http://www.w3.org/TR/2001/REC-SVG-20010904/DTD/svg10.dtd">
<svg version="1.0" xmlns="http://www.w3.org/2000/svg"
 width="310.000000pt" height="211.000000pt" viewBox="0 0 310.000000 211.000000"
 preserveAspectRatio="xMidYMid meet">

<g transform="translate(0.000000,211.000000) scale(0.100000,-0.100000)"
fill="#000000" stroke="none">
<path d="M1160 1355 l0 -676 63 3 62 3 5 230 c5 229 5 230 32 277 36 59 88
103 158 129 46 18 70 20 150 16 319 -17 570 -268 570 -570 0 -201 -132 -405
-320 -495 -110 -52 -195 -72 -306 -72 -146 0 -288 48 -406 138 l-65 49 -27
-44 c-14 -24 -26 -48 -26 -53 0 -18 106 -93 185 -131 116 -56 217 -79 344 -79
125 0 210 17 314 60 195 81 344 240 409 435 19 58 23 91 23 190 0 105 -4 131
-29 209 -56 171 -188 324 -351 408 l-83 42 38 43 c124 141 112 336 -27 463
-95 87 -125 94 -440 98 l-273 4 0 -677z m580 515 c123 -69 155 -217 68 -316
-50 -57 -99 -76 -213 -85 -114 -8 -177 -27 -252 -75 l-53 -34 0 271 0 270 203
-3 c194 -3 204 -4 247 -28z"/>
<path d="M380 1960 l0 -60 315 0 315 0 0 -648 c0 -713 0 -707 -62 -824 -39
-74 -113 -142 -198 -182 -96 -45 -223 -48 -352 -10 -16 5 -18 -2 -18 -55 0
-72 4 -76 115 -93 58 -9 95 -9 155 0 219 31 391 178 462 392 22 64 22 79 26
760 2 382 1 714 -3 738 l-6 42 -375 0 -374 0 0 -60z"/>
<path d="M2340 2014 c-14 -3 -40 -10 -57 -15 -33 -10 -33 -11 -33 -74 l0 -63
53 20 c36 15 76 21 132 21 70 1 89 -3 150 -32 116 -54 205 -172 205 -271 l0
-30 65 0 c75 0 76 2 50 105 -33 127 -132 240 -264 303 -67 32 -82 36 -175 38
-55 1 -112 0 -126 -2z"/>
<path d="M2250 1256 c0 -25 -4 -47 -8 -50 -5 -3 -26 9 -48 27 l-39 32 26 -35
c33 -45 83 -70 244 -121 194 -62 286 -110 371 -194 89 -87 114 -146 114 -265
0 -314 -316 -523 -642 -424 -16 5 -18 -2 -18 -55 l0 -60 38 -11 c113 -32 285
-18 398 32 225 98 365 317 351 548 -8 145 -67 258 -184 354 -87 72 -194 125
-373 182 -80 26 -162 55 -182 65 -21 11 -40 19 -43 19 -3 0 -5 -20 -5 -44z"/>
<path d="M918 709 c-34 -73 -49 -152 -38 -209 18 -96 29 -101 66 -28 25 50 26
55 15 118 -6 36 -13 90 -14 120 l-2 55 -27 -56z"/>
<path d="M2100 240 c-25 -22 -40 -40 -33 -40 20 0 104 61 98 71 -9 14 -17 11
-65 -31z"/>
</g>
</svg>
