<svg xmlns="http://www.w3.org/2000/svg" width="216" height="480" viewBox="0 0 216 480" fill="none"><g clip-path="url(#clip0_3520_4772)"><path opacity="0.1" fill-rule="evenodd" clip-rule="evenodd" d="M594.113 693.988C594.113 694.743 593.711 695.441 593.057 695.818C592.403 696.196 591.597 696.195 590.944 695.818L1.2328 355.205C1.17458 355.179 1.11732 355.149 1.06117 355.117C0.404434 354.737 -0.000107118 354.037 -0.000107085 353.279L-9.71565e-05 126.139C-9.71234e-05 125.381 0.4042 124.681 1.06063 124.302L394.305 -102.838C394.961 -103.217 395.77 -103.217 396.427 -102.838C397.084 -102.459 397.488 -101.758 397.488 -101L397.488 126.139C397.488 126.897 397.084 127.598 396.427 127.977L202.979 239.713L593.057 465.019C593.711 465.397 594.113 466.094 594.113 466.849L594.113 693.988ZM198.755 242.153L589.888 468.068L589.888 690.328L6.35524 353.284L198.755 242.153ZM4.24417 129.805L4.24416 349.602L194.512 239.703L4.24417 129.805ZM6.35525 126.145L198.736 237.263L393.244 124.914L393.244 -97.3237L6.35525 126.145Z" fill="#524A82"></path></g><defs><clipPath id="clip0_3520_4772"><rect width="216" height="480" fill="white"></rect></clipPath></defs></svg>