<svg xmlns="http://www.w3.org/2000/svg" width="40" height="40" viewBox="0 0 40 40" fill="none"><rect width="40" height="40" rx="8" fill="#F9E7F0"></rect><path d="M14.6974 28.0625C14.3824 28.0625 14.0899 27.9875 13.8274 27.8375C13.2499 27.5 12.9199 26.8175 12.9199 25.97V15.395C12.9199 13.49 14.4724 11.9375 16.3774 11.9375H23.6149C25.5199 11.9375 27.0724 13.49 27.0724 15.395V25.9625C27.0724 26.81 26.7424 27.4925 26.1649 27.83C25.5874 28.1675 24.8299 28.13 24.0874 27.7175L20.4274 25.685C20.2099 25.565 19.7824 25.565 19.5649 25.685L15.9049 27.7175C15.4999 27.9425 15.0874 28.0625 14.6974 28.0625ZM16.3849 13.0625C15.1024 13.0625 14.0524 14.1125 14.0524 15.395V25.9625C14.0524 26.405 14.1799 26.735 14.4049 26.8625C14.6299 26.99 14.9824 26.9525 15.3649 26.735L19.0249 24.7025C19.5799 24.395 20.4199 24.395 20.9749 24.7025L24.6349 26.735C25.0174 26.9525 25.3699 26.9975 25.5949 26.8625C25.8199 26.7275 25.9474 26.3975 25.9474 25.9625V15.395C25.9474 14.1125 24.8974 13.0625 23.6149 13.0625H16.3849V13.0625Z" fill="#BF0D69"></path><path d="M19.3184 20.9376C19.1759 20.9376 19.0334 20.8851 18.9209 20.7726L17.7959 19.6476C17.5784 19.4301 17.5784 19.0701 17.7959 18.8526C18.0134 18.6351 18.3734 18.6351 18.5909 18.8526L19.3184 19.5801L21.9209 16.9776C22.1384 16.7601 22.4984 16.7601 22.7159 16.9776C22.9334 17.1951 22.9334 17.5551 22.7159 17.7726L19.7159 20.7726C19.6034 20.8851 19.4609 20.9376 19.3184 20.9376Z" fill="#BF0D69"></path></svg>