<svg xmlns="http://www.w3.org/2000/svg" width="40" height="40" viewBox="0 0 40 40" fill="none"><rect width="40" height="40" rx="8" fill="#F9E7F0"></rect><path d="M20.0009 20.81C19.9034 20.81 19.8059 20.7875 19.7159 20.735L15.7409 18.44C15.4709 18.2825 15.3809 17.9375 15.5384 17.675C15.6959 17.405 16.0334 17.315 16.3109 17.4725L20.0009 19.61L23.6685 17.4875C23.9385 17.33 24.2835 17.4275 24.441 17.69C24.5985 17.96 24.5009 18.305 24.2384 18.455L20.2935 20.735C20.196 20.78 20.0984 20.81 20.0009 20.81Z" fill="#BF0D69"></path><path d="M20 24.8901C19.6925 24.8901 19.4375 24.6351 19.4375 24.3276V20.2476C19.4375 19.9401 19.6925 19.6851 20 19.6851C20.3075 19.6851 20.5625 19.9401 20.5625 20.2476V24.3276C20.5625 24.6351 20.3075 24.8901 20 24.8901Z" fill="#BF0D69"></path><path d="M19.9997 25.0626C19.5647 25.0626 19.1372 24.9651 18.7922 24.7776L16.3922 23.4426C15.6722 23.0451 15.1172 22.0926 15.1172 21.2676V18.7251C15.1172 17.9076 15.6797 16.9476 16.3922 16.5501L18.7922 15.2151C19.4822 14.8326 20.5172 14.8326 21.2072 15.2151L23.6072 16.5501C24.3272 16.9476 24.8822 17.9001 24.8822 18.7251V21.2676C24.8822 22.0851 24.3197 23.0451 23.6072 23.4426L21.2072 24.7776C20.8622 24.9651 20.4347 25.0626 19.9997 25.0626ZM19.9997 16.0626C19.7522 16.0626 19.5122 16.1076 19.3397 16.2051L16.9397 17.5401C16.5722 17.7426 16.2422 18.3126 16.2422 18.7251V21.2676C16.2422 21.6876 16.5722 22.2501 16.9397 22.4526L19.3397 23.7876C19.6847 23.9826 20.3147 23.9826 20.6597 23.7876L23.0597 22.4526C23.4272 22.2501 23.7572 21.6801 23.7572 21.2676V18.7251C23.7572 18.3051 23.4272 17.7426 23.0597 17.5401L20.6597 16.2051C20.4872 16.1076 20.2472 16.0626 19.9997 16.0626Z" fill="#BF0D69"></path><path d="M22.2511 28.0627C22.0486 28.0627 21.8611 27.9502 21.7636 27.7777C21.6661 27.5977 21.6661 27.3877 21.7711 27.2077L22.5586 25.8952C22.7161 25.6327 23.0611 25.5427 23.3311 25.7002C23.6011 25.8577 23.6836 26.2027 23.5261 26.4727L23.3236 26.8102C25.3936 26.3227 26.9461 24.4627 26.9461 22.2427C26.9461 21.9352 27.2011 21.6802 27.5086 21.6802C27.8161 21.6802 28.0711 21.9352 28.0711 22.2427C28.0636 25.4527 25.4536 28.0627 22.2511 28.0627Z" fill="#BF0D69"></path><path d="M12.5 18.3125C12.1925 18.3125 11.9375 18.0575 11.9375 17.75C11.9375 14.5475 14.5475 11.9375 17.75 11.9375C17.9525 11.9375 18.14 12.05 18.2375 12.2225C18.335 12.4025 18.335 12.6125 18.23 12.7925L17.4425 14.105C17.285 14.3675 16.94 14.4575 16.67 14.3C16.4 14.1425 16.3175 13.7975 16.475 13.5275L16.6775 13.19C14.6075 13.6775 13.055 15.5375 13.055 17.7575C13.0625 18.0575 12.8075 18.3125 12.5 18.3125Z" fill="#BF0D69"></path></svg>