<svg xmlns="http://www.w3.org/2000/svg" width="40" height="40" viewBox="0 0 40 40" fill="none"><rect width="40" height="40" rx="8" fill="#F9E7F0"></rect><path d="M20.75 28.0625H17.75C13.6775 28.0625 11.9375 26.3225 11.9375 22.25V17.75C11.9375 13.6775 13.6775 11.9375 17.75 11.9375H22.25C26.3225 11.9375 28.0625 13.6775 28.0625 17.75V20.75C28.0625 21.0575 27.8075 21.3125 27.5 21.3125C27.1925 21.3125 26.9375 21.0575 26.9375 20.75V17.75C26.9375 14.2925 25.7075 13.0625 22.25 13.0625H17.75C14.2925 13.0625 13.0625 14.2925 13.0625 17.75V22.25C13.0625 25.7075 14.2925 26.9375 17.75 26.9375H20.75C21.0575 26.9375 21.3125 27.1925 21.3125 27.5C21.3125 27.8075 21.0575 28.0625 20.75 28.0625Z" fill="#BF0D69"></path><path d="M16.4971 22.43C16.3771 22.43 16.2571 22.3925 16.1521 22.31C15.9046 22.1225 15.8596 21.77 16.0471 21.5225L17.8321 19.205C18.0496 18.9275 18.3571 18.7475 18.7096 18.7025C19.0621 18.6575 19.4071 18.755 19.6846 18.9725L21.0571 20.0525C21.1096 20.0975 21.1621 20.09 21.1996 20.09C21.2296 20.09 21.2821 20.075 21.3271 20.015L23.0596 17.78C23.2471 17.5325 23.5996 17.4875 23.8471 17.6825C24.0946 17.87 24.1396 18.2225 23.9446 18.47L22.2121 20.705C21.9946 20.9825 21.6871 21.1625 21.3346 21.2C20.9896 21.245 20.6371 21.1475 20.3671 20.93L18.9946 19.85C18.9421 19.805 18.8821 19.805 18.8521 19.8125C18.8221 19.8125 18.7696 19.8275 18.7246 19.8875L16.9396 22.205C16.8346 22.355 16.6696 22.43 16.4971 22.43Z" fill="#BF0D69"></path><path d="M26.1958 28.0627C25.9333 28.0627 25.5958 27.9802 25.1983 27.7402L25.0108 27.6277C24.9583 27.5977 24.8008 27.5977 24.7483 27.6277L24.5608 27.7402C23.6983 28.2577 23.1508 28.0402 22.9108 27.8602C22.6633 27.6802 22.2808 27.2302 22.5058 26.2402L22.5433 26.0827C22.5583 26.0227 22.5133 25.8802 22.4758 25.8352L22.2133 25.5727C21.7708 25.1227 21.5983 24.5977 21.7483 24.1252C21.8983 23.6602 22.3408 23.3302 22.9633 23.2252L23.2483 23.1802C23.3008 23.1652 23.4058 23.0902 23.4358 23.0377L23.6458 22.6102C23.9383 22.0177 24.3883 21.6802 24.8833 21.6802C25.3783 21.6802 25.8283 22.0177 26.1208 22.6102L26.3308 23.0302C26.3608 23.0827 26.4658 23.1577 26.5183 23.1727L26.8033 23.2177C27.4258 23.3227 27.8683 23.6527 28.0183 24.1177C28.1683 24.5827 28.0033 25.1077 27.5533 25.5652L27.2908 25.8277C27.2533 25.8727 27.2083 26.0152 27.2233 26.0752L27.2608 26.2327C27.4858 27.2227 27.1033 27.6727 26.8558 27.8527C26.7208 27.9577 26.5033 28.0627 26.1958 28.0627ZM24.8683 22.8127C24.8608 22.8202 24.7558 22.8952 24.6508 23.1127L24.4408 23.5402C24.2608 23.9077 23.8333 24.2227 23.4358 24.2902L23.1508 24.3352C22.9108 24.3727 22.8283 24.4552 22.8208 24.4702C22.8208 24.4852 22.8433 24.6052 23.0158 24.7777L23.2783 25.0402C23.5858 25.3552 23.7433 25.8952 23.6458 26.3227L23.6083 26.4802C23.5408 26.7727 23.5708 26.9002 23.5858 26.9452C23.6083 26.9302 23.7358 26.9152 23.9833 26.7652L24.1708 26.6527C24.5833 26.4052 25.1758 26.4052 25.5883 26.6527L25.7758 26.7652C26.0833 26.9527 26.2108 26.9302 26.2183 26.9302C26.1883 26.9302 26.2258 26.7802 26.1583 26.4802L26.1208 26.3227C26.0233 25.8877 26.1808 25.3552 26.4883 25.0402L26.7508 24.7777C26.9233 24.6052 26.9458 24.4852 26.9458 24.4627C26.9383 24.4477 26.8558 24.3727 26.6158 24.3277L26.3308 24.2827C25.9258 24.2152 25.5058 23.9002 25.3258 23.5327L25.1158 23.1127C24.9958 22.8877 24.8908 22.8202 24.8683 22.8127Z" fill="#BF0D69"></path></svg>