<svg xmlns="http://www.w3.org/2000/svg" width="40" height="40" viewBox="0 0 40 40" fill="none"><rect width="40" height="40" rx="8" fill="#F9E7F0"></rect><path d="M19.8433 19.91C19.4383 19.91 19.0258 19.835 18.7033 19.6925L14.2783 17.7275C13.1533 17.225 12.9883 16.55 12.9883 16.1825C12.9883 15.815 13.1533 15.14 14.2783 14.6375L18.7033 12.6725C19.3558 12.38 20.3383 12.38 20.9908 12.6725L25.4233 14.6375C26.5408 15.1325 26.7133 15.815 26.7133 16.1825C26.7133 16.55 26.5483 17.225 25.4233 17.7275L20.9908 19.6925C20.6608 19.8425 20.2558 19.91 19.8433 19.91ZM19.8433 13.58C19.5883 13.58 19.3408 13.6175 19.1608 13.7L14.7358 15.665C14.2783 15.875 14.1133 16.085 14.1133 16.1825C14.1133 16.28 14.2783 16.4975 14.7283 16.7L19.1533 18.665C19.5133 18.8225 20.1658 18.8225 20.5258 18.665L24.9583 16.7C25.4158 16.4975 25.5808 16.28 25.5808 16.1825C25.5808 16.085 25.4158 15.8675 24.9583 15.665L20.5333 13.7C20.3533 13.625 20.0983 13.58 19.8433 13.58Z" fill="#BF0D69"></path><path d="M20 23.8175C19.715 23.8175 19.43 23.7575 19.16 23.6375L14.0675 21.3725C13.295 21.035 12.6875 20.0975 12.6875 19.25C12.6875 18.9425 12.9425 18.6875 13.25 18.6875C13.5575 18.6875 13.8125 18.9425 13.8125 19.25C13.8125 19.6625 14.15 20.18 14.525 20.3525L19.6175 22.6175C19.8575 22.7225 20.135 22.7225 20.3825 22.6175L25.475 20.3525C25.85 20.1875 26.1875 19.6625 26.1875 19.25C26.1875 18.9425 26.4425 18.6875 26.75 18.6875C27.0575 18.6875 27.3125 18.9425 27.3125 19.25C27.3125 20.0975 26.705 21.035 25.9325 21.38L20.84 23.645C20.57 23.7575 20.285 23.8175 20 23.8175Z" fill="#BF0D69"></path><path d="M20 27.5677C19.715 27.5677 19.43 27.5077 19.16 27.3877L14.0675 25.1227C13.2275 24.7477 12.6875 23.9152 12.6875 22.9927C12.6875 22.6852 12.9425 22.4302 13.25 22.4302C13.5575 22.4302 13.8125 22.6927 13.8125 23.0002C13.8125 23.4727 14.09 23.9077 14.525 24.1027L19.6175 26.3677C19.8575 26.4727 20.135 26.4727 20.3825 26.3677L25.475 24.1027C25.91 23.9077 26.1875 23.4802 26.1875 23.0002C26.1875 22.6927 26.4425 22.4377 26.75 22.4377C27.0575 22.4377 27.3125 22.6927 27.3125 23.0002C27.3125 23.9227 26.7725 24.7552 25.9325 25.1302L20.84 27.3952C20.57 27.5077 20.285 27.5677 20 27.5677Z" fill="#BF0D69"></path></svg>