<svg xmlns="http://www.w3.org/2000/svg" width="40" height="40" viewBox="0 0 40 40" fill="none"><rect width="40" height="40" rx="8" fill="#F9E7F0"></rect><path d="M14.75 28.8125C13.505 28.8125 12.335 28.1525 11.705 27.08C11.3675 26.54 11.1875 25.9025 11.1875 25.25C11.1875 23.285 12.785 21.6875 14.75 21.6875C16.715 21.6875 18.3125 23.285 18.3125 25.25C18.3125 25.9025 18.1325 26.54 17.795 27.0875C17.165 28.1525 15.995 28.8125 14.75 28.8125ZM14.75 22.8125C13.4075 22.8125 12.3125 23.9075 12.3125 25.25C12.3125 25.6925 12.4325 26.1275 12.665 26.5025C13.1075 27.2525 13.8875 27.6875 14.75 27.6875C15.6125 27.6875 16.3925 27.245 16.835 26.51C17.0675 26.1275 17.1875 25.7 17.1875 25.25C17.1875 23.9075 16.0925 22.8125 14.75 22.8125Z" fill="#BF0D69"></path><path d="M14.3227 26.5552C14.1802 26.5552 14.0377 26.5027 13.9252 26.3902L13.1827 25.6477C12.9652 25.4302 12.9652 25.0701 13.1827 24.8526C13.4002 24.6351 13.7602 24.6351 13.9777 24.8526L14.3377 25.2127L15.5377 24.1026C15.7627 23.8926 16.1227 23.9077 16.3327 24.1327C16.5427 24.3577 16.5277 24.7177 16.3027 24.9277L14.7052 26.4052C14.5927 26.5027 14.4577 26.5552 14.3227 26.5552Z" fill="#BF0D69"></path><path d="M15.642 16.8576C15.462 16.8576 15.297 16.7751 15.1845 16.6251C15.057 16.4526 15.042 16.2276 15.1395 16.0401C15.267 15.7851 15.447 15.5376 15.6795 15.3126L18.117 12.8676C19.362 11.6301 21.387 11.6301 22.632 12.8676L23.9445 14.2026C24.4995 14.7501 24.837 15.4851 24.8745 16.2651C24.882 16.4376 24.8145 16.6026 24.687 16.7151C24.5595 16.8276 24.387 16.8801 24.222 16.8501C24.072 16.8276 23.9145 16.8201 23.7495 16.8201H16.2495C16.0695 16.8201 15.897 16.8351 15.7245 16.8576C15.702 16.8576 15.672 16.8576 15.642 16.8576ZM16.8945 15.6876H23.6145C23.517 15.4326 23.3595 15.2001 23.1495 14.9901L21.8295 13.6551C21.027 12.8601 19.7145 12.8601 18.9045 13.6551L16.8945 15.6876Z" fill="#BF0D69"></path><path d="M23.7494 28.0625H16.7219C16.4819 28.0625 16.2719 27.9125 16.1894 27.695C16.1069 27.47 16.1744 27.2225 16.3544 27.0725C16.5344 26.9225 16.6994 26.7275 16.8194 26.5175C17.0594 26.135 17.1794 25.7 17.1794 25.2575C17.1794 23.915 16.0844 22.82 14.7419 22.82C14.0444 22.82 13.3769 23.12 12.9119 23.6525C12.7544 23.825 12.5069 23.8925 12.2894 23.81C12.0719 23.7275 11.9219 23.5175 11.9219 23.285V20C11.9219 17.69 13.3469 16.0175 15.5594 15.74C15.7619 15.71 15.9944 15.6875 16.2344 15.6875H23.7344C23.9144 15.6875 24.1469 15.695 24.3869 15.7325C26.5994 15.9875 28.0469 17.6675 28.0469 20V23.75C28.0619 26.33 26.3294 28.0625 23.7494 28.0625ZM17.8844 26.9375H23.7494C25.6844 26.9375 26.9369 25.685 26.9369 23.75V20C26.9369 18.245 25.9094 17.0375 24.2444 16.8425C24.0644 16.8125 23.9069 16.8125 23.7494 16.8125H16.2494C16.0694 16.8125 15.8969 16.8275 15.7244 16.85C14.0744 17.06 13.0619 18.26 13.0619 20V22.115C13.5719 21.8375 14.1569 21.6875 14.7494 21.6875C16.7144 21.6875 18.3119 23.285 18.3119 25.25C18.3119 25.8425 18.1619 26.4275 17.8844 26.9375Z" fill="#BF0D69"></path><path d="M27.5 23.9375H25.25C24.11 23.9375 23.1875 23.015 23.1875 21.875C23.1875 20.735 24.11 19.8125 25.25 19.8125H27.5C27.8075 19.8125 28.0625 20.0675 28.0625 20.375C28.0625 20.6825 27.8075 20.9375 27.5 20.9375H25.25C24.7325 20.9375 24.3125 21.3575 24.3125 21.875C24.3125 22.3925 24.7325 22.8125 25.25 22.8125H27.5C27.8075 22.8125 28.0625 23.0675 28.0625 23.375C28.0625 23.6825 27.8075 23.9375 27.5 23.9375Z" fill="#BF0D69"></path></svg>