<svg xmlns="http://www.w3.org/2000/svg" width="40" height="40" viewBox="0 0 40 40" fill="none"><rect width="40" height="40" rx="8" fill="#F9E7F0"></rect><path d="M23.5253 25.7974H16.4753C15.9203 25.7974 15.3578 25.3999 15.1703 24.8824L12.0653 16.1899C11.6828 15.0949 11.9603 14.5924 12.2603 14.3674C12.5603 14.1424 13.1228 14.0074 14.0678 14.6824L16.9928 16.7749C17.0828 16.8274 17.1653 16.8499 17.2253 16.8349C17.2928 16.8124 17.3453 16.7524 17.3828 16.6474L18.7028 13.1299C19.1003 12.0799 19.6853 11.9224 20.0003 11.9224C20.3153 11.9224 20.9003 12.0799 21.2978 13.1299L22.6178 16.6474C22.6553 16.7449 22.7078 16.8124 22.7753 16.8349C22.8428 16.8574 22.9253 16.8349 23.0078 16.7674L25.7528 14.8099C26.7578 14.0899 27.3428 14.2324 27.6653 14.4649C27.9803 14.7049 28.2728 15.2374 27.8603 16.3999L24.8303 24.8824C24.6428 25.3999 24.0803 25.7974 23.5253 25.7974ZM13.0103 15.3574C13.0253 15.4624 13.0553 15.6124 13.1303 15.8074L16.2353 24.4999C16.2653 24.5749 16.4003 24.6724 16.4753 24.6724H23.5253C23.6078 24.6724 23.7428 24.5749 23.7653 24.4999L26.7953 16.0249C26.9003 15.7399 26.9303 15.5449 26.9378 15.4324C26.8253 15.4699 26.6528 15.5524 26.4053 15.7324L23.6603 17.6899C23.2853 17.9524 22.8428 18.0349 22.4453 17.9149C22.0478 17.7949 21.7253 17.4799 21.5603 17.0524L20.2403 13.5349C20.1428 13.2724 20.0528 13.1449 20.0003 13.0849C19.9478 13.1449 19.8578 13.2724 19.7603 13.5274L18.4403 17.0449C18.2828 17.4724 17.9603 17.7874 17.5553 17.9074C17.1578 18.0274 16.7078 17.9449 16.3403 17.6824L13.4153 15.5899C13.2428 15.4699 13.1078 15.3949 13.0103 15.3574Z" fill="#BF0D69"></path><path d="M24.125 28.0625H15.875C15.5675 28.0625 15.3125 27.8075 15.3125 27.5C15.3125 27.1925 15.5675 26.9375 15.875 26.9375H24.125C24.4325 26.9375 24.6875 27.1925 24.6875 27.5C24.6875 27.8075 24.4325 28.0625 24.125 28.0625Z" fill="#BF0D69"></path><path d="M21.875 22.0625H18.125C17.8175 22.0625 17.5625 21.8075 17.5625 21.5C17.5625 21.1925 17.8175 20.9375 18.125 20.9375H21.875C22.1825 20.9375 22.4375 21.1925 22.4375 21.5C22.4375 21.8075 22.1825 22.0625 21.875 22.0625Z" fill="#BF0D69"></path></svg>